<?xml version="1.0" encoding="UTF-8"?>
<svg width="349px" height="228px" viewBox="0 0 349 228" version="1.1" xmlns="http://www.w3.org/2000/svg" xmlns:xlink="http://www.w3.org/1999/xlink">
    <!-- Generator: Sketch 48.1 (47250) - http://www.bohemiancoding.com/sketch -->
    <title>Group</title>
    <desc>Created with Sketch.</desc>
    <defs></defs>
    <g id="Page-1" stroke="none" stroke-width="1" fill="none" fill-rule="evenodd">
        <g id="Group" fill="#242424">
            <path d="M37.008,35.856 C40.9440197,35.856 44.5679834,36.2639959 47.88,37.08 C51.1920166,37.8960041 53.9039894,38.9279938 56.016,40.176 C58.7040134,41.7120077 60.8159923,43.775987 62.352,46.368 C63.8880077,48.960013 64.656,51.8879837 64.656,55.152 C64.656,59.1840202 63.360013,62.5199868 60.768,65.16 C58.175987,67.8000132 54.8640202,69.12 50.832,69.12 C46.7039794,69.12 43.4640118,67.9440118 41.112,65.592 C38.7599882,63.2399882 37.584,60.0960197 37.584,56.16 C37.584,52.7039827 38.7119887,49.6560132 40.968,47.016 C43.2240113,44.3759868 46.0319832,42.6240043 49.392,41.76 C47.9519928,40.6079942 46.032012,40.032 43.632,40.032 C37.4879693,40.032 33.1680125,43.3199671 30.672,49.896 C28.1759875,56.4720329 26.928,64.2719549 26.928,73.296 C26.928,82.5120461 28.6559827,89.0879803 32.112,93.024 C35.5680173,96.9600197 39.8399746,98.928 44.928,98.928 C51.936035,98.928 57.743977,95.7120322 62.352,89.28 L64.8,90.144 C62.6879894,96.8640336 59.1120252,102.623976 54.072,107.424 C49.0319748,112.224024 42.5760394,114.624 34.704,114.624 C24.2399477,114.624 15.8400317,111.504031 9.504,105.264 C3.16796832,99.0239688 0,89.0400686 0,75.312 C0,62.1599342 3.38396616,52.2960329 10.152,45.72 C16.9200338,39.1439671 25.8719443,35.856 37.008,35.856 Z M123.696,35.856 C128.400024,35.856 131.78399,37.2959856 133.848,40.176 C135.91201,43.0560144 136.944,46.4639803 136.944,50.4 C136.944,54.7200216 135.720012,58.1519873 133.272,60.696 C130.823988,63.2400127 127.63202,64.512 123.696,64.512 C119.567979,64.512 116.400011,63.5760094 114.192,61.704 C111.983989,59.8319906 110.88,57.3120158 110.88,54.144 C110.88,48.4799717 113.327976,44.0160163 118.224,40.752 C116.495991,40.752 114.960007,41.0879966 113.616,41.76 C111.215988,42.8160053 109.200008,44.5199882 107.568,46.872 C105.935992,49.2240118 105.12,51.7919861 105.12,54.576 L105.12,97.776 C105.12,102.288023 106.055991,105.383992 107.928,107.064 C109.800009,108.744008 112.991977,109.584 117.504,109.584 L117.504,112.608 C116.255994,112.608 115.200004,112.56 114.336,112.464 C104.25595,112.175999 97.5360168,112.032 94.176,112.032 C91.1999851,112.032 84.5280518,112.175999 74.16,112.464 C73.3919962,112.56 72.3840062,112.608 71.136,112.608 L71.136,109.584 C74.1120149,109.584 76.199994,108.840007 77.4,107.352 C78.600006,105.863993 79.2,103.15202 79.2,99.216 L79.2,53.568 C79.2,49.1519779 78.600006,45.9360101 77.4,43.92 C76.199994,41.9039899 74.1120149,40.896 71.136,40.896 L71.136,37.872 C74.2080154,38.1600014 77.1839856,38.304 80.064,38.304 C90.0480499,38.304 98.3999664,37.6320067 105.12,36.288 L105.12,46.656 C108.768018,39.455964 114.959956,35.856 123.696,35.856 Z M160.56,0 C165.552025,0 169.415986,1.05598944 172.152,3.168 C174.888014,5.28001056 176.256,8.35197984 176.256,12.384 C176.256,16.4160202 174.888014,19.4879894 172.152,21.6 C169.415986,23.7120106 165.552025,24.768 160.56,24.768 C155.471975,24.768 151.584013,23.7120106 148.896,21.6 C146.207987,19.4879894 144.864,16.4160202 144.864,12.384 C144.864,8.35197984 146.207987,5.28001056 148.896,3.168 C151.584013,1.05598944 155.471975,0 160.56,0 Z M174.384,99.216 C174.384,103.15202 174.983994,105.863993 176.184,107.352 C177.384006,108.840007 179.471985,109.584 182.448,109.584 L182.448,112.608 C172.079948,112.223998 165.264016,112.032 162,112.032 C158.735984,112.032 151.536056,112.223998 140.4,112.608 L140.4,109.584 C143.376015,109.584 145.463994,108.840007 146.664,107.352 C147.864006,105.863993 148.464,103.15202 148.464,99.216 L148.464,53.568 C148.464,49.1519779 147.864006,45.9360101 146.664,43.92 C145.463994,41.9039899 143.376015,40.896 140.4,40.896 L140.4,37.872 C143.472015,38.1600014 146.447986,38.304 149.328,38.304 C159.31205,38.304 167.663966,37.6320067 174.384,36.288 L174.384,99.216 Z M218.16,35.856 C221.904019,35.856 225.431983,36.2639959 228.744,37.08 C232.056017,37.8960041 234.575991,38.7839952 236.304,39.744 C237.360005,40.3200029 238.223997,40.608 238.896,40.608 C240.91201,40.608 242.111998,39.0720154 242.496,36 L245.376,36 C244.991998,40.992025 244.8,49.6319386 244.8,61.92 L241.92,61.92 C241.151996,55.5839683 239.352014,50.2320218 236.52,45.864 C233.687986,41.4959782 229.584027,39.312 224.208,39.312 C221.807988,39.312 219.792008,40.0319928 218.16,41.472 C216.527992,42.9120072 215.712,44.8799875 215.712,47.376 C215.712,50.5440158 216.767989,53.3519878 218.88,55.8 C220.992011,58.2480122 224.303977,61.2479822 228.816,64.8 C229.008001,64.8960005 230.399987,65.9999894 232.992,68.112 C238.368027,72.5280221 242.303988,76.439983 244.8,79.848 C247.296012,83.256017 248.544,87.455975 248.544,92.448 C248.544,96.6720211 247.248013,100.487983 244.656,103.896 C242.063987,107.304017 238.536022,109.943991 234.072,111.816 C229.607978,113.688009 224.736026,114.624 219.456,114.624 C213.40797,114.624 208.464019,113.424012 204.624,111.024 C202.991992,110.159996 201.648005,109.536002 200.592,109.152 C199.535995,108.767998 198.480005,108.576 197.424,108.576 C195.599991,108.576 194.256004,110.255983 193.392,113.616 L190.512,113.616 C190.896002,108.143973 191.088,98.5440686 191.088,84.816 L193.968,84.816 C194.832004,92.6880394 196.943983,99.023976 200.304,103.824 C203.664017,108.624024 207.887975,111.024 212.976,111.024 C215.376012,111.024 217.367992,110.352007 218.952,109.008 C220.536008,107.663993 221.328,105.696013 221.328,103.104 C221.328,100.415987 220.776006,98.0160106 219.672,95.904 C218.567994,93.7919894 217.224008,91.8960084 215.64,90.216 C214.055992,88.5359916 211.488018,86.1120158 207.936,82.944 C203.90398,79.1999813 200.832011,76.224011 198.72,74.016 C196.607989,71.807989 194.808007,69.2400146 193.32,66.312 C191.831993,63.3839854 191.088,60.1440178 191.088,56.592 C191.088,52.4639794 192.335988,48.8160158 194.832,45.648 C197.328012,42.4799842 200.639979,40.0560084 204.768,38.376 C208.896021,36.6959916 213.359976,35.856 218.16,35.856 Z M289.152,37.872 L303.264,37.872 L303.264,40.752 L289.152,40.752 L289.152,100.512 C289.152,102.43201 289.487997,103.775996 290.16,104.544 C290.832003,105.312004 291.935992,105.696 293.472,105.696 C294.624006,105.696 295.919993,105.360003 297.36,104.688 C298.800007,104.015997 300.095994,102.960007 301.248,101.52 L303.408,103.248 C298.991978,110.832038 292.176046,114.624 282.96,114.624 C276.335967,114.624 271.392016,112.992016 268.128,109.728 C266.11199,107.71199 264.792003,105.216015 264.168,102.24 C263.543997,99.2639851 263.232,95.0880269 263.232,89.712 L263.232,40.752 L252.288,40.752 L252.288,37.872 L263.232,37.872 L263.232,20.88 C268.416026,20.88 273.095979,20.376005 277.272,19.368 C281.448021,18.359995 285.407981,16.752011 289.152,14.544 L289.152,37.872 Z M326.448,0 C331.440025,0 335.303986,1.05598944 338.04,3.168 C340.776014,5.28001056 342.144,8.35197984 342.144,12.384 C342.144,16.4160202 340.776014,19.4879894 338.04,21.6 C335.303986,23.7120106 331.440025,24.768 326.448,24.768 C321.359975,24.768 317.472013,23.7120106 314.784,21.6 C312.095987,19.4879894 310.752,16.4160202 310.752,12.384 C310.752,8.35197984 312.095987,5.28001056 314.784,3.168 C317.472013,1.05598944 321.359975,0 326.448,0 Z M340.272,99.216 C340.272,103.15202 340.871994,105.863993 342.072,107.352 C343.272006,108.840007 345.359985,109.584 348.336,109.584 L348.336,112.608 C337.967948,112.223998 331.152016,112.032 327.888,112.032 C324.623984,112.032 317.424056,112.223998 306.288,112.608 L306.288,109.584 C309.264015,109.584 311.351994,108.840007 312.552,107.352 C313.752006,105.863993 314.352,103.15202 314.352,99.216 L314.352,53.568 C314.352,49.1519779 313.752006,45.9360101 312.552,43.92 C311.351994,41.9039899 309.264015,40.896 306.288,40.896 L306.288,37.872 C309.360015,38.1600014 312.335986,38.304 315.216,38.304 C325.20005,38.304 333.551966,37.6320067 340.272,36.288 L340.272,99.216 Z" id="cristi"></path>
            <path d="M41.6552697,132 C47.4247733,132 52.2326209,133.48242 56.0789566,136.447303 C57.3610686,137.408887 58.4228016,138.771111 59.2641875,140.534015 C60.1055735,142.296919 60.5262601,144.260123 60.5262601,146.423687 C60.5262601,148.987911 59.5847233,151.251606 57.7016214,153.21484 C55.8185195,155.178073 53.4346285,156.159676 50.5498766,156.159676 C47.1843328,156.159676 44.5400167,155.278237 42.6168488,153.515333 C40.6936809,151.752429 39.7321114,149.30844 39.7321114,146.183292 C39.7321114,143.779332 40.4332558,141.615801 41.8355657,139.692633 C43.2378757,137.769465 45.3012436,136.367176 48.0257314,135.485724 C47.4648074,134.764536 46.3830417,134.403948 44.7804018,134.403948 C42.29631,134.403948 40.4132363,135.16519 39.1311244,136.687698 C38.3298045,137.649282 37.7488562,138.951408 37.3882622,140.594114 C37.0276683,142.236819 36.847374,144.580645 36.847374,147.625661 L36.847374,163.732111 L49.7084949,163.732111 L49.7084949,166.136059 L36.847374,166.136059 L36.847374,213.614029 C36.847374,217.300101 37.70878,219.864286 39.4316179,221.306662 C41.1544558,222.749038 43.7386739,223.470215 47.1843497,223.470215 L47.1843497,225.99436 L43.6986253,225.874163 C34.0827859,225.633767 27.8726494,225.513571 25.0680296,225.513571 C22.6640698,225.513571 17.135045,225.673832 8.48078957,225.99436 L8.48078957,223.470215 C10.9648814,223.470215 12.7077262,222.849201 13.7093761,221.607155 C14.711026,220.36511 15.2118435,218.101415 15.2118435,214.816003 L15.2118435,166.136059 L8,166.136059 L8,163.732111 L15.2118435,163.732111 C15.2118435,156.760628 15.8328571,151.411897 17.0749031,147.68576 C18.316949,143.959622 20.5405785,140.734357 23.7458583,138.00987 C25.7491582,136.327098 28.353409,134.904776 31.5586888,133.742862 C34.7639686,132.580948 38.1294619,132 41.6552697,132 Z M68.0986958,226.835742 C62.9702481,226.835742 59.1039374,225.453486 56.4996475,222.688932 C53.8953577,219.924378 52.5932323,216.458721 52.5932323,212.291858 C52.5932323,208.685918 53.5347691,205.701046 55.417871,203.337152 C57.3009729,200.973258 59.5246024,199.150283 62.0888262,197.868171 C64.6530501,196.586059 67.978478,195.263901 72.0652097,193.901657 C76.3923375,192.459281 79.5575038,191.137123 81.5608037,189.935143 C83.5641035,188.733163 84.5657385,187.050416 84.5657385,184.886852 L84.5657385,174.189284 C84.5657385,171.625061 83.9246921,169.341333 82.6425802,167.338033 C81.3604683,165.334733 79.1568715,164.333098 76.0317237,164.333098 C73.5476318,164.333098 71.3039696,165.01421 69.3006697,166.376454 C72.0251576,167.338038 74.0484601,168.76036 75.370638,170.643461 C76.6928159,172.526563 77.353895,174.629997 77.353895,176.953824 C77.353895,180.078972 76.2520966,182.58306 74.0484667,184.466161 C71.8448368,186.349263 69.180488,187.2908 66.0553401,187.2908 C62.9301923,187.2908 60.4661705,186.309198 58.6632006,184.345964 C56.8602307,182.38273 55.9587593,179.878643 55.9587593,176.833627 C55.9587593,174.429667 56.5597402,172.346267 57.7617201,170.583363 C58.9637001,168.820459 60.8467737,167.217843 63.4109975,165.775467 C67.8983893,163.211243 74.3088527,161.929151 82.6425802,161.929151 C87.0498399,161.929151 90.8560526,162.349837 94.0613324,163.191223 C97.2666122,164.032609 99.9910592,165.615192 102.234755,167.93902 C103.837395,169.621792 104.899128,171.725225 105.419986,174.249383 C105.940844,176.773541 106.201269,180.279263 106.201269,184.766655 L106.201269,216.979556 C106.201269,218.982856 106.341498,220.345079 106.62196,221.066267 C106.902422,221.787455 107.403239,222.148044 108.124427,222.148044 C108.685351,222.148044 109.286332,221.967749 109.927388,221.607155 C110.568444,221.246561 111.169425,220.825875 111.730349,220.345083 L112.932323,222.388438 C109.486647,225.353322 104.558603,226.835742 98.1480437,226.835742 C93.340124,226.835742 89.9746307,226.014401 88.0514628,224.371695 C86.1282949,222.72899 85.0865946,220.50536 84.9263306,217.70074 C81.1601269,223.790772 75.5509713,226.835742 68.0986958,226.835742 Z M80.118435,217.219951 C81.8012069,217.219951 83.2836265,216.538839 84.5657385,215.176595 L84.5657385,189.814945 C83.8445505,191.016925 82.5223924,192.579476 80.5992245,194.502644 C78.4356607,196.586076 76.7929794,198.609378 75.6711315,200.572612 C74.5492835,202.535846 73.988368,205.200195 73.988368,208.565738 C73.988368,214.335242 76.0317032,217.219951 80.118435,217.219951 Z M160.169898,161.929151 C164.096366,161.929151 166.920976,163.131112 168.643814,165.535072 C170.366652,167.939032 171.228058,170.783675 171.228058,174.069087 C171.228058,177.675027 170.20639,180.539703 168.163024,182.663201 C166.119658,184.786698 163.45531,185.848431 160.169898,185.848431 C156.724222,185.848431 154.079906,185.067156 152.23687,183.504582 C150.393834,181.942008 149.47233,179.838575 149.47233,177.194219 C149.47233,172.466432 151.515665,168.74035 155.602397,166.015862 C154.160021,166.015862 152.877928,166.29632 151.75608,166.857244 C149.75278,167.738696 148.070034,169.161017 146.70779,171.124251 C145.345546,173.087485 144.664434,175.230984 144.664434,177.554811 L144.664434,213.614029 C144.664434,217.380233 145.445709,219.964451 147.008283,221.366761 C148.570857,222.769071 151.235206,223.470215 155.00141,223.470215 L155.00141,225.99436 C153.959694,225.99436 153.078255,225.954295 152.357067,225.874163 C143.943208,225.633767 138.334052,225.513571 135.529432,225.513571 C133.045341,225.513571 127.476251,225.633767 118.821995,225.874163 C118.180939,225.954295 117.339566,225.99436 116.29785,225.99436 L116.29785,223.470215 C118.781942,223.470215 120.524786,222.849201 121.526436,221.607155 C122.528086,220.36511 123.028904,218.101415 123.028904,214.816003 L123.028904,176.71343 C123.028904,173.027358 122.528086,170.342976 121.526436,168.660204 C120.524786,166.977433 118.781942,166.136059 116.29785,166.136059 L116.29785,163.611914 C118.862074,163.85231 121.346128,163.972506 123.750088,163.972506 C132.083816,163.972506 139.055195,163.411591 144.664434,162.289743 L144.664434,170.943955 C147.70945,164.934055 152.877886,161.929151 160.169898,161.929151 Z M206.085301,161.929151 C209.370713,161.929151 212.395651,162.269706 215.160204,162.950828 C217.924758,163.63195 220.188453,164.493356 221.951357,165.535072 C224.195053,166.817184 225.95793,168.539996 227.240042,170.70356 C228.522154,172.867124 229.163201,175.311113 229.163201,178.035601 C229.163201,181.401145 228.081435,184.18569 225.917871,186.38932 C223.754307,188.59295 220.989795,189.694748 217.624251,189.694748 C214.178575,189.694748 211.474161,188.713146 209.510927,186.749912 C207.547693,184.786678 206.566091,182.162395 206.566091,178.876983 C206.566091,175.992231 207.507628,173.448078 209.39073,171.244448 C211.273832,169.040818 213.617657,167.578432 216.422277,166.857244 C215.220297,165.89566 213.617681,165.414875 211.614381,165.414875 C206.485934,165.414875 202.880048,168.159355 200.796616,173.648396 C198.713184,179.137438 197.671484,185.648065 197.671484,193.180472 C197.671484,200.873144 199.113838,206.362103 201.99859,209.647515 C204.883342,212.932927 208.449162,214.575608 212.696158,214.575608 C218.545794,214.575608 223.393707,211.891226 227.240042,206.522383 L229.283398,207.243567 C227.520494,212.852807 224.535622,217.660654 220.328692,221.667254 C216.121763,225.673854 210.732967,227.677124 204.162143,227.677124 C195.427756,227.677124 188.416311,225.072873 183.1276,219.864293 C177.838888,214.655714 175.194572,206.322111 175.194572,194.863236 C175.194572,183.885152 178.019182,175.651713 183.668488,170.162672 C189.317793,164.67363 196.78999,161.929151 206.085301,161.929151 Z M250.197744,226.835742 C245.069296,226.835742 241.202986,225.453486 238.598696,222.688932 C235.994406,219.924378 234.692281,216.458721 234.692281,212.291858 C234.692281,208.685918 235.633817,205.701046 237.516919,203.337152 C239.400021,200.973258 241.623651,199.150283 244.187875,197.868171 C246.752098,196.586059 250.077526,195.263901 254.164258,193.901657 C258.491386,192.459281 261.656552,191.137123 263.659852,189.935143 C265.663152,188.733163 266.664787,187.050416 266.664787,184.886852 L266.664787,174.189284 C266.664787,171.625061 266.02374,169.341333 264.741628,167.338033 C263.459517,165.334733 261.25592,164.333098 258.130772,164.333098 C255.64668,164.333098 253.403018,165.01421 251.399718,166.376454 C254.124206,167.338038 256.147508,168.76036 257.469686,170.643461 C258.791864,172.526563 259.452943,174.629997 259.452943,176.953824 C259.452943,180.078972 258.351145,182.58306 256.147515,184.466161 C253.943885,186.349263 251.279536,187.2908 248.154388,187.2908 C245.029241,187.2908 242.565219,186.309198 240.762249,184.345964 C238.959279,182.38273 238.057808,179.878643 238.057808,176.833627 C238.057808,174.429667 238.658788,172.346267 239.860768,170.583363 C241.062748,168.820459 242.945822,167.217843 245.510046,165.775467 C249.997438,163.211243 256.407901,161.929151 264.741628,161.929151 C269.148888,161.929151 272.955101,162.349837 276.160381,163.191223 C279.36566,164.032609 282.090107,165.615192 284.333803,167.93902 C285.936443,169.621792 286.998176,171.725225 287.519034,174.249383 C288.039892,176.773541 288.300317,180.279263 288.300317,184.766655 L288.300317,216.979556 C288.300317,218.982856 288.440546,220.345079 288.721008,221.066267 C289.00147,221.787455 289.502288,222.148044 290.223476,222.148044 C290.784399,222.148044 291.38538,221.967749 292.026436,221.607155 C292.667492,221.246561 293.268473,220.825875 293.829397,220.345083 L295.031371,222.388438 C291.585695,225.353322 286.657652,226.835742 280.247092,226.835742 C275.439172,226.835742 272.073679,226.014401 270.150511,224.371695 C268.227343,222.72899 267.185643,220.50536 267.025379,217.70074 C263.259175,223.790772 257.65002,226.835742 250.197744,226.835742 Z M262.217483,217.219951 C263.900255,217.219951 265.382675,216.538839 266.664787,215.176595 L266.664787,189.814945 C265.943599,191.016925 264.621441,192.579476 262.698273,194.502644 C260.534709,196.586076 258.892028,198.609378 257.77018,200.572612 C256.648332,202.535846 256.087416,205.200195 256.087416,208.565738 C256.087416,214.335242 258.130752,217.219951 262.217483,217.219951 Z M323.63835,161.929151 C326.763498,161.929151 329.708305,162.269706 332.472859,162.950828 C335.237412,163.63195 337.340846,164.37316 338.783222,165.17448 C339.664674,165.655272 340.385851,165.895664 340.946775,165.895664 C342.629547,165.895664 343.631182,164.613572 343.95171,162.049348 L346.355657,162.049348 C346.035129,166.216212 345.874868,173.427983 345.874868,183.684878 L343.47092,183.684878 C342.829864,178.396167 341.327412,173.928875 338.963518,170.282869 C336.599624,166.636863 333.174033,164.813888 328.686641,164.813888 C326.683341,164.813888 325.000594,165.414869 323.63835,166.616849 C322.276106,167.818829 321.594995,169.46151 321.594995,171.544942 C321.594995,174.189298 322.476433,176.533123 324.239337,178.576489 C326.002241,180.619855 328.766754,183.123942 332.532957,186.088826 C332.693221,186.168958 333.855118,187.090462 336.018682,188.853366 C340.506073,192.539438 343.791436,195.804768 345.874868,198.649454 C347.9583,201.494139 349,204.999862 349,209.166725 C349,212.692533 347.918234,215.877732 345.75467,218.722418 C343.591107,221.567104 340.6463,223.770701 336.920162,225.333275 C333.194024,226.895848 329.127387,227.677124 324.720127,227.677124 C319.671811,227.677124 315.545075,226.675489 312.339796,224.672189 C310.977552,223.951001 309.855721,223.430151 308.974269,223.109623 C308.092817,222.789095 307.211378,222.628833 306.329926,222.628833 C304.807418,222.628833 303.685587,224.031122 302.964399,226.835742 L300.560451,226.835742 C300.880979,222.268218 301.041241,214.255139 301.041241,202.796264 L303.445189,202.796264 C304.166377,209.367087 305.929254,214.65572 308.733874,218.662319 C311.538494,222.668919 315.064249,224.672189 319.311244,224.672189 C321.314544,224.672189 322.977258,224.111273 324.299436,222.989425 C325.621614,221.867578 326.282693,220.224896 326.282693,218.061332 C326.282693,215.817637 325.821941,213.814367 324.900423,212.051463 C323.978905,210.288559 322.857074,208.705976 321.534896,207.303666 C320.212718,205.901356 318.069219,203.878053 315.104336,201.233698 C311.738792,198.10855 309.174606,195.624495 307.411703,193.781459 C305.648799,191.938423 304.146346,189.794925 302.9043,187.350899 C301.662254,184.906873 301.041241,182.202459 301.041241,179.237575 C301.041241,175.791899 302.082941,172.746929 304.166373,170.102573 C306.249805,167.458217 309.014317,165.434915 312.459993,164.032605 C315.905669,162.630295 319.631751,161.929151 323.63835,161.929151 Z" id="farcas" transform="translate(178.500000, 179.838562) scale(-1, -1) translate(-178.500000, -179.838562) "></path>
        </g>
    </g>
</svg>